<?xml version="1.0" encoding="UTF-8" standalone="no"?><!-- Generator: Gravit.io --><svg xmlns="http://www.w3.org/2000/svg" xmlns:xlink="http://www.w3.org/1999/xlink" style="isolation:isolate" viewBox="0 0 400 400" width="400pt" height="400pt"><defs><clipPath id="_clipPath_jR3lAPcvEcUKzUpKvN8qzzgyMN3iErw1"><rect width="400" height="400"/></clipPath></defs><g clip-path="url(#_clipPath_jR3lAPcvEcUKzUpKvN8qzzgyMN3iErw1)"><path d=" M 49.001 200.089 C 48.326 112.862 113.198 41.538 193.776 40.915 C 274.354 40.292 340.32 110.604 340.995 197.832 C 341.669 285.059 276.798 356.383 196.22 357.006 C 115.642 357.629 49.675 287.317 49.001 200.089 Z " fill="rgb(232,232,232)" vector-effect="non-scaling-stroke" stroke-width="5" stroke="rgb(39,52,77)" stroke-linejoin="miter" stroke-linecap="square" stroke-miterlimit="3"/><ellipse vector-effect="non-scaling-stroke" cx="195.5" cy="196.00000000000006" rx="122.5" ry="127.99999999999994" fill="rgb(255,255,255)" stroke-width="5" stroke="rgb(39,52,77)" stroke-linejoin="miter" stroke-linecap="square" stroke-miterlimit="3"/><polygon points="300.746,259.349,193.663,324.009,89.417,260.66,92.254,132.651,199.337,67.991,303.583,131.34" fill="rgb(235,235,235)" vector-effect="non-scaling-stroke" stroke-width="3" stroke="rgb(39,52,77)" stroke-linejoin="miter" stroke-linecap="square" stroke-miterlimit="3"/><path d=" M 34.161 228.772 L 385.839 228.772 C 386.48 228.772 386.737 229.222 386.414 229.775 L 362.586 270.542 C 362.263 271.095 361.48 271.545 360.839 271.545 L 8.161 271.545 C 7.52 271.545 7.27 271.1 7.603 270.552 L 32.397 229.765 C 32.73 229.217 33.52 228.772 34.161 228.772 Z " fill="rgb(39,52,77)"/><text transform="matrix(0.91,0,0,1.174,124.22,257.377)" style="font-family:'Open Sans';font-weight:400;font-size:20px;font-style:normal;font-variant-ligatures:none;letter-spacing:5;fill:#ffffff;stroke:none;">9jaHits.com</text><path d=" M 193.207 209.255 C 193.06 209.258 192.913 209.26 192.765 209.262 C 174.246 209.473 159.064 196.874 158.885 181.145 C 158.706 165.417 173.597 152.476 192.117 152.266 L 192.441 180.764 L 193.207 209.255 Z " fill="rgb(39,52,77)" vector-effect="non-scaling-stroke" stroke-width="1" stroke="rgb(39,52,77)" stroke-linejoin="miter" stroke-linecap="butt" stroke-miterlimit="3"/><path d=" M 199.337 152.276 C 199.484 152.273 199.631 152.27 199.778 152.268 C 218.298 152.054 233.482 164.65 233.664 180.379 C 233.846 196.107 218.958 209.05 200.437 209.265 L 200.108 180.767 L 199.337 152.276 Z " fill="rgb(39,52,77)" vector-effect="non-scaling-stroke" stroke-width="1" stroke="rgb(39,52,77)" stroke-linejoin="miter" stroke-linecap="butt" stroke-miterlimit="3"/></g></svg>